/* XPM */
static char * status_online_xpm[] = {
"30 20 110 2",
"  	c None",
". 	c #4F4F4D4D4141",
"X 	c #545458583F3F",
"o 	c #6E6E70706262",
"O 	c #4E4E4F4F4747",
"+ 	c #3E3E3E3E3434",
"@ 	c #333334342222",
"# 	c #1A1A1D1D0808",
"$ 	c #1B1B1D1D1010",
"% 	c #454544443F3F",
"& 	c #FFFFFFFFF1F1",
"* 	c #FFFFFFFFDFDF",
"= 	c #F8F8EEEED5D5",
"- 	c #FFFFF9F9E8E8",
"; 	c #FFFFFDFDE7E7",
": 	c #EFEFE4E4C8C8",
"> 	c #FFFFFFFFE3E3",
", 	c #D5D5CECEBBBB",
"< 	c #0E0E07070000",
"1 	c #EFEFEFEFD3D3",
"2 	c #5F5F5F5F5555",
"3 	c #FFFFFFFFECEC",
"4 	c #FFFFE7E7C3C3",
"5 	c #F0F0D5D5B8B8",
"6 	c #FFFFE3E3CECE",
"7 	c #FFFFE1E1C8C8",
"8 	c #F6F6D9D9B7B7",
"9 	c #E5E5CCCCADAD",
"0 	c #A5A590907B7B",
"q 	c #0F0F00000000",
"w 	c #F9F9D9D9B3B3",
"e 	c #DBDBB4B48D8D",
"r 	c #525253534545",
"t 	c #FFFFE4E4C6C6",
"y 	c #FFFFE8E8D0D0",
"u 	c #F7F7CBCBB0B0",
"i 	c #383812120000",
"p 	c #CCCCABAB8A8A",
"a 	c #909075756262",
"s 	c #1D1D04040000",
"d 	c #515152524242",
"f 	c #FCFCE2E2BDBD",
"g 	c #FBFBDCDCBDBD",
"h 	c #F3F3CECEB3B3",
"j 	c #EDEDC6C6A7A7",
"k 	c #1D1D00000000",
"l 	c #D6D6B9B99797",
"z 	c #8C8C77776464",
"x 	c #0D0D00000000",
"c 	c #383839392727",
"v 	c #F9F9FAFAD8D8",
"b 	c #F6F6E4E4BCBC",
"n 	c #FFFFEDEDCDCD",
"m 	c #ECECCECEB2B2",
"M 	c #CACAA9A98888",
"N 	c #BCBCA0A07979",
"B 	c #A0A08C8C6969",
"V 	c #66665B5B4747",
"C 	c #0F0F08080202",
"Z 	c #333336362323",
"A 	c #FFFFFFFFE1E1",
"S 	c #F5F5CFCFABAB",
"D 	c #FFFFDCDCB8B8",
"F 	c #EDEDC3C39B9B",
"G 	c #A8A887876666",
"H 	c #A0A08A8A7272",
"J 	c #5C5C53534444",
"K 	c #0D0D0D0D0505",
"L 	c #EDEDF3F3D1D1",
"P 	c #DBDBB1B18989",
"I 	c #2C2C2F2F1E1E",
"U 	c #FFFFDBDBB4B4",
"Y 	c #F2F2C8C8A0A0",
"T 	c #BCBC94947070",
"R 	c #A6A687876868",
"E 	c #131300000000",
"W 	c #070700000000",
"Q 	c #010100000000",
"! 	c #B3B399998080",
"~ 	c #2A2A2C2C1E1E",
"^ 	c #F8F8FDFDDFDF",
"/ 	c #F7F7D0D0A5A5",
"( 	c #EFEFC5C59B9B",
") 	c #E3E3BCBC9393",
"_ 	c #89896E6E5353",
"` 	c #757563635555",
"' 	c #151510100C0C",
"] 	c #AFAF8B8B6767",
"[ 	c #8D8D78786363",
"{ 	c #232325251A1A",
"} 	c #ECECF0F0D9D9",
"| 	c #E7E7C2C29898",
" .	c #E7E7C1C19A9A",
"..	c #9F9F80806363",
"X.	c #141400000000",
"o.	c #101003030000",
"O.	c #030300000000",
"+.	c #747464645757",
"@.	c #171718181212",
"#.	c #EEEEF1F1E0E0",
"$.	c #C9C9ACAC8C8C",
"%.	c #A6A689896B6B",
"&.	c #56564F4F4949",
"*.	c #000000000202",
"=.	c #000002020000",
"-.	c #141402020000",
";.	c #101000000000",
":.	c #0B0B00000000",
">.	c #080800000000",
",.	c #0A0A03030000",
"                                                            ",
"                                                            ",
"                                                            ",
"                                                            ",
"        . X o O + @ # $             $ # @ + O o X .         ",
"      % & * = - ; : > , <         < & * * ; 1 = * & %       ",
"      2 3 4 5 6 7 8 9 0 q         q & * 4 7 w 5 e 0 2       ",
"      r 1 w t y u i p a s         s 1 4 i u y t w a r       ",
"      d > f g h j k l z x         x * 4 k w h g e 0 d       ",
"      c v b n m M N B V C         C & 1 5 4 m e b V c       ",
"      Z A S D F e G H J K         K L 4 1 P 5 D S a Z       ",
"      I L U Y P T R E W Q         Q W E 4 m P Y ! a I       ",
"      ~ ^ / ( ) k _ ` '             ' 4 5 k ) ) ] [ ~       ",
"      { } |  .] ..X.o.O.            O.o.X...] ! +.+.{       ",
"      @.#.$.%.! [ +.&.*.            *.] 0 ] a +.+.&.@.      ",
"        =.-.;.:.>.,.Q                 Q ,.>.:.;.-.=.        ",
"                                                            ",
"                                                            ",
"                                                            ",
"                                                            "};
