/* XPM */
static char * status_unavailable_xpm[] = {
"30 20 91 1",
" 	c None",
".	c #FFFF00000000",
"X	c #4F4F4D4D4141",
"o	c #545458583F3F",
"O	c #6E6E70706262",
"+	c #1A1A1D1D0808",
"@	c #1B1B1D1D1010",
"#	c #454544443F3F",
"$	c #FFFFFFFFF1F1",
"%	c #FFFFFFFFDFDF",
"&	c #F8F8EEEED5D5",
"*	c #EFEFE4E4C8C8",
"=	c #FFFFFFFFE3E3",
"-	c #D5D5CECEBBBB",
";	c #0E0E07070000",
":	c #5F5F5F5F5555",
">	c #FFFFFFFFECEC",
",	c #FFFFE7E7C3C3",
"<	c #FFFFE1E1C8C8",
"1	c #F6F6D9D9B7B7",
"2	c #E5E5CCCCADAD",
"3	c #A5A590907B7B",
"4	c #0F0F00000000",
"5	c #DBDBB4B48D8D",
"6	c #525253534545",
"7	c #EFEFEFEFD3D3",
"8	c #F9F9D9D9B3B3",
"9	c #F7F7CBCBB0B0",
"0	c #383812120000",
"q	c #CCCCABAB8A8A",
"w	c #909075756262",
"e	c #1D1D04040000",
"r	c #515152524242",
"t	c #FCFCE2E2BDBD",
"y	c #EDEDC6C6A7A7",
"u	c #1D1D00000000",
"i	c #D6D6B9B99797",
"p	c #8C8C77776464",
"a	c #0D0D00000000",
"s	c #383839392727",
"d	c #F9F9FAFAD8D8",
"f	c #F6F6E4E4BCBC",
"g	c #CACAA9A98888",
"h	c #BCBCA0A07979",
"j	c #A0A08C8C6969",
"k	c #66665B5B4747",
"l	c #0F0F08080202",
"z	c #F0F0D5D5B8B8",
"x	c #333336362323",
"c	c #FFFFFFFFE1E1",
"v	c #F5F5CFCFABAB",
"b	c #A8A887876666",
"n	c #A0A08A8A7272",
"m	c #5C5C53534444",
"M	c #0D0D0D0D0505",
"N	c #EDEDF3F3D1D1",
"B	c #DBDBB1B18989",
"V	c #2C2C2F2F1E1E",
"C	c #FFFFDBDBB4B4",
"Z	c #BCBC94947070",
"A	c #A6A687876868",
"S	c #131300000000",
"D	c #070700000000",
"F	c #010100000000",
"G	c #ECECCECEB2B2",
"H	c #B3B399998080",
"J	c #2A2A2C2C1E1E",
"K	c #F8F8FDFDDFDF",
"L	c #F7F7D0D0A5A5",
"P	c #89896E6E5353",
"I	c #757563635555",
"U	c #151510100C0C",
"Y	c #AFAF8B8B6767",
"T	c #8D8D78786363",
"R	c #232325251A1A",
"E	c #ECECF0F0D9D9",
"W	c #E7E7C2C29898",
"Q	c #9F9F80806363",
"!	c #141400000000",
"~	c #030300000000",
"^	c #101003030000",
"/	c #747464645757",
"(	c #171718181212",
")	c #EEEEF1F1E0E0",
"_	c #C9C9ACAC8C8C",
"`	c #A6A689896B6B",
"'	c #000000000202",
"]	c #56564F4F4949",
"[	c #000002020000",
"{	c #141402020000",
"}	c #101000000000",
"                              ",
"           ........           ",
"         ............         ",
"        ...        ...        ",
"    XoO...+@      @....OoX    ",
"   #$%&..*=-;    ;.....&%$#   ",
"   :>,..<1234    ...,<..53:   ",
"   678..90qwe   ...,09..8w6   ",
"   r=t..yuipa  ...%,u8..53r   ",
"   sdf..ghjkl ...l$7z,..fks   ",
"   xcv..5bnmM... MN,7B..vwx   ",
"   VNC..ZASD...  FDS,G..HwV   ",
"   JKL..uPI...    U,zu..YTJ   ",
"   REW..Q!...     ~^!Q..//R   ",
"   ()_`.....      'Y3..//](   ",
"    [{}....        F...}{[    ",
"        ...        ...        ",
"         ............         ",
"           ........           ",
"                              "};
