/* XPM */
static char * status_doubtful_xpm[] = {
"30 20 105 2",
"  	c None",
". 	c #FFFF00000000",
"X 	c #4F4F4D4D4141",
"o 	c #545458583F3F",
"O 	c #6E6E70706262",
"+ 	c #4E4E4F4F4747",
"@ 	c #3E3E3E3E3434",
"# 	c #454544443F3F",
"$ 	c #FFFFFFFFF1F1",
"% 	c #FFFFFFFFDFDF",
"& 	c #F8F8EEEED5D5",
"* 	c #FFFFF9F9E8E8",
"= 	c #D5D5CECEBBBB",
"- 	c #0E0E07070000",
"; 	c #FFFFFDFDE7E7",
": 	c #EFEFEFEFD3D3",
"> 	c #5F5F5F5F5555",
", 	c #FFFFFFFFECEC",
"< 	c #FFFFE7E7C3C3",
"1 	c #F0F0D5D5B8B8",
"2 	c #FFFFE3E3CECE",
"3 	c #FFFFE1E1C8C8",
"4 	c #A5A590907B7B",
"5 	c #0F0F00000000",
"6 	c #F9F9D9D9B3B3",
"7 	c #DBDBB4B48D8D",
"8 	c #525253534545",
"9 	c #FFFFE4E4C6C6",
"0 	c #FFFFE8E8D0D0",
"q 	c #F7F7CBCBB0B0",
"w 	c #383812120000",
"e 	c #CCCCABAB8A8A",
"r 	c #909075756262",
"t 	c #1D1D04040000",
"y 	c #515152524242",
"u 	c #FFFFFFFFE3E3",
"i 	c #FCFCE2E2BDBD",
"p 	c #FBFBDCDCBDBD",
"a 	c #F3F3CECEB3B3",
"s 	c #EDEDC6C6A7A7",
"d 	c #1D1D00000000",
"f 	c #D6D6B9B99797",
"g 	c #8C8C77776464",
"h 	c #0D0D00000000",
"j 	c #383839392727",
"k 	c #F9F9FAFAD8D8",
"l 	c #F6F6E4E4BCBC",
"z 	c #FFFFEDEDCDCD",
"x 	c #ECECCECEB2B2",
"c 	c #CACAA9A98888",
"v 	c #BCBCA0A07979",
"b 	c #A0A08C8C6969",
"n 	c #66665B5B4747",
"m 	c #0F0F08080202",
"M 	c #333336362323",
"N 	c #FFFFFFFFE1E1",
"B 	c #F5F5CFCFABAB",
"V 	c #FFFFDCDCB8B8",
"C 	c #EDEDC3C39B9B",
"Z 	c #A8A887876666",
"A 	c #A0A08A8A7272",
"S 	c #5C5C53534444",
"D 	c #0D0D0D0D0505",
"F 	c #DBDBB1B18989",
"G 	c #2C2C2F2F1E1E",
"H 	c #EDEDF3F3D1D1",
"J 	c #FFFFDBDBB4B4",
"K 	c #F2F2C8C8A0A0",
"L 	c #BCBC94947070",
"P 	c #A6A687876868",
"I 	c #131300000000",
"U 	c #070700000000",
"Y 	c #010100000000",
"T 	c #B3B399998080",
"R 	c #2A2A2C2C1E1E",
"E 	c #F8F8FDFDDFDF",
"W 	c #F7F7D0D0A5A5",
"Q 	c #EFEFC5C59B9B",
"! 	c #E3E3BCBC9393",
"~ 	c #89896E6E5353",
"^ 	c #757563635555",
"/ 	c #151510100C0C",
"( 	c #AFAF8B8B6767",
") 	c #8D8D78786363",
"_ 	c #232325251A1A",
"` 	c #ECECF0F0D9D9",
"' 	c #E7E7C2C29898",
"] 	c #E7E7C1C19A9A",
"[ 	c #9F9F80806363",
"{ 	c #141400000000",
"} 	c #101003030000",
"| 	c #030300000000",
" .	c #747464645757",
"..	c #171718181212",
"X.	c #EEEEF1F1E0E0",
"o.	c #C9C9ACAC8C8C",
"O.	c #A6A689896B6B",
"+.	c #56564F4F4949",
"@.	c #000000000202",
"#.	c #000002020000",
"$.	c #141402020000",
"%.	c #101000000000",
"&.	c #0B0B00000000",
"*.	c #080800000000",
"=.	c #0A0A03030000",
"                                                            ",
"                        . . . . .                           ",
"                    . . . . . . . . .                       ",
"                  . . . . . . . . . . .                     ",
"        X o O + . . . .           . . . . @ + O o X         ",
"      # $ % & * . . . = -         - . . . ; : & % $ #       ",
"      > , < 1 2 3 . . 4 5         5 . . . 3 6 1 7 4 >       ",
"      8 : 6 9 0 q w e r t         t . . . q 0 9 6 r 8       ",
"      y u i p a s d f g h         h . . . 6 a p 7 4 y       ",
"      j k l z x c v b n m       . . . . 1 < x 7 l n j       ",
"      M N B V C 7 Z A S D     . . . . < : F 1 V B r M       ",
"      G H J K F L P I U Y     . . . U I < x F K T r G       ",
"      R E W Q ! d ~ ^ /     . . .   / < 1 d ! ! ( ) R       ",
"      _ ` ' ] ( [ { } |     . . .   | } { [ ( T  . ._       ",
"      ..X.o.O.T )  .+.@.    . . .   @.( 4 ( r  . .+...      ",
"        #.$.%.&.*.=.Y       . . .     Y =.*.&.%.$.#.        ",
"                                                            ",
"                            . . .                           ",
"                            . . .                           ",
"                                                            "};
